<?xml version="1.0" encoding="utf-8"?>
<!-- Generator: Adobe Illustrator 22.1.0, SVG Export Plug-In . SVG Version: 6.00 Build 0)  -->
<svg version="1.1" id="Layer_1" xmlns="http://www.w3.org/2000/svg" xmlns:xlink="http://www.w3.org/1999/xlink" x="0px" y="0px"
	 viewBox="0 0 1080 1080" style="enable-background:new 0 0 1080 1080;" xml:space="preserve">
<style type="text/css">
	.st0{filter:url(#Adobe_OpacityMaskFilter);}
	.st1{mask:url(#SVGID_1_);}
	.st2{clip-path:url(#SVGID_6_);fill:url(#SVGID_7_);}
	.st3{fill:#F69320;}
	.st4{fill:#FAAF3C;}
	.st5{filter:url(#Adobe_OpacityMaskFilter_1_);}
	.st6{mask:url(#SVGID_10_);}
	.st7{fill:#6B6B6B;}
	.st8{fill:#FFFFFF;}
</style>
<g>
	<g>
		<defs>
			<filter id="Adobe_OpacityMaskFilter" filterUnits="userSpaceOnUse" x="-83.1" y="-51.5" width="1183" height="1183">
				<feFlood  style="flood-color:white;flood-opacity:1" result="back"/>
				<feBlend  in="SourceGraphic" in2="back" mode="normal"/>
			</filter>
		</defs>
		<mask maskUnits="userSpaceOnUse" x="-83.1" y="-51.5" width="1183" height="1183" id="SVGID_1_">
			<g class="st0">
				
					<image style="overflow:visible;" width="4947" height="4946" xlink:href="32BA9067.jpg"  transform="matrix(0.24 0 0 0.24 -85.2 -53.52)">
				</image>
			</g>
		</mask>
		<g class="st1">
			<g>
				<defs>
					<circle id="SVGID_2_" cx="508.4" cy="540" r="394.1"/>
				</defs>
				<clipPath id="SVGID_3_">
					<use xlink:href="#SVGID_2_"  style="overflow:visible;"/>
				</clipPath>
			</g>
			<g>
				<defs>
					<circle id="SVGID_4_" cx="508.4" cy="540" r="394.1"/>
				</defs>
				<radialGradient id="SVGID_5_" cx="508.4206" cy="540" r="394.0673" gradientUnits="userSpaceOnUse">
					<stop  offset="0" style="stop-color:#E4F2E7"/>
					<stop  offset="1" style="stop-color:#93C0C0"/>
				</radialGradient>
				<use xlink:href="#SVGID_4_"  style="overflow:visible;fill:url(#SVGID_5_);"/>
				<clipPath id="SVGID_6_">
					<use xlink:href="#SVGID_4_"  style="overflow:visible;"/>
				</clipPath>
				<radialGradient id="SVGID_7_" cx="508.4206" cy="540" r="591.498" gradientUnits="userSpaceOnUse">
					<stop  offset="0" style="stop-color:#E4F2E7"/>
					<stop  offset="1" style="stop-color:#93C0C0"/>
				</radialGradient>
				<rect x="-83.1" y="-51.5" class="st2" width="1183" height="1183"/>
			</g>
			<g>
				<defs>
					<circle id="SVGID_8_" cx="508.4" cy="540" r="394.1"/>
				</defs>
				<clipPath id="SVGID_9_">
					<use xlink:href="#SVGID_8_"  style="overflow:visible;"/>
				</clipPath>
			</g>
		</g>
	</g>
	<g>
		<g>
			<path class="st3" d="M930.3,449.4c0,100.8-81.7,182.4-182.4,182.4c-100.8,0-182.4-81.7-182.4-182.4
				c0-100.8,81.7-182.4,182.4-182.4C848.7,266.9,930.3,348.6,930.3,449.4z"/>
			<g>
				<polygon class="st4" points="727,256.7 747.9,221.8 768.8,256.7 				"/>
				<polygon class="st4" points="661.9,275.5 657.7,202.8 701.1,261.3 				"/>
				<polygon class="st4" points="607.2,315.5 600.7,275.4 639.2,288.7 				"/>
				<polygon class="st4" points="569.4,371.8 519.4,318.8 590.3,335.6 				"/>
				<polygon class="st4" points="553.2,437.6 522.5,411 560.4,396.5 				"/>
				<polygon class="st4" points="560.4,505 488.1,496.5 553.2,463.9 				"/>
				<polygon class="st4" points="590.3,565.8 549.6,565.2 569.4,529.7 				"/>
				<polygon class="st4" points="639.2,612.8 578.3,652.8 607.2,585.9 				"/>
				<polygon class="st4" points="701.2,640.2 669.6,665.8 661.9,625.9 				"/>
				<polygon class="st4" points="768.8,644.7 747.9,714.5 727,644.7 				"/>
				<polygon class="st4" points="833.9,625.9 826.2,665.8 794.6,640.2 				"/>
				<polygon class="st4" points="888.6,585.9 917.5,652.8 856.6,612.8 				"/>
				<polygon class="st4" points="926.4,529.7 946.1,565.2 905.5,565.8 				"/>
				<polygon class="st4" points="942.6,463.9 1007.7,496.5 935.3,505 				"/>
				<polygon class="st4" points="935.3,396.5 973.3,411 942.6,437.6 				"/>
				<polygon class="st4" points="905.5,335.6 976.4,318.8 926.3,371.8 				"/>
				<polygon class="st4" points="856.6,288.7 895,275.4 888.6,315.5 				"/>
				<polygon class="st4" points="794.6,261.3 838.1,202.8 833.9,275.5 				"/>
			</g>
		</g>
		<g>
			<defs>
				<filter id="Adobe_OpacityMaskFilter_1_" filterUnits="userSpaceOnUse" x="82.4" y="392.4" width="795.9" height="442.8">
					<feFlood  style="flood-color:white;flood-opacity:1" result="back"/>
					<feBlend  in="SourceGraphic" in2="back" mode="normal"/>
				</filter>
			</defs>
			<mask maskUnits="userSpaceOnUse" x="82.4" y="392.4" width="795.9" height="442.8" id="SVGID_10_">
				<g class="st5">
					
						<image style="overflow:visible;" width="3333" height="1863" xlink:href="32BA9065.jpg"  transform="matrix(0.24 0 0 0.24 80.4 390.24)">
					</image>
				</g>
			</mask>
			<g class="st6">
				<path class="st7" d="M877.1,639c0.1-2.6,0.2-5.1,0.2-7.7v-2.1l-1.6,0.1c-14.3-82.7-86.3-145.6-173.1-145.6
					c-12,0-23.7,1.2-35.1,3.5c-37.9-57.2-102.7-94.9-176.5-94.9c-111.1,0-202.1,85.6-210.8,194.5c-19.2-10.9-41.5-17.1-65.1-17.1
					c-73.3,0-132.7,59.4-132.7,132.7v1.3c0,72.6,58.8,131.4,131.4,131.4h459.5c5,0,10-0.2,15-0.6c4.7,0.4,9.5,0.6,14.3,0.6
					c97,0,175.7-78.7,175.7-175.7C878.3,652.6,877.8,645.7,877.1,639z"/>
			</g>
		</g>
		<path class="st8" d="M843.4,590.7c-13.9-80.3-83.9-141.4-168.2-141.4c-11.7,0-23.1,1.2-34.1,3.4c0,0-0.1,0-0.1,0
			c-36.8-55.6-99.9-92.2-171.5-92.2c-107.9,0-196.4,83.2-204.9,188.9c0,0-0.1,0.1-0.1,0.1c-18.7-10.5-40.2-16.6-63.2-16.6
			c-71.2,0-129,57.8-129,129v1.2c0,70.6,57.2,127.8,127.8,127.8h446.6c4.9,0,9.8-0.2,14.6-0.6c0,0,0,0,0,0c4.6,0.4,9.2,0.6,13.9,0.6
			c94.3,0,170.8-76.5,170.8-170.8c0-6.7-0.4-13.3-1.2-19.7L843.4,590.7z"/>
	</g>
</g>
</svg>
